<svg width="25" height="24" viewBox="0 0 25 24" fill="none" xmlns="http://www.w3.org/2000/svg">
<path opacity="0.4" d="M3.61523 9.4043H21.3918" stroke="black" stroke-width="1.5" stroke-linecap="round" stroke-linejoin="round"/>
<path opacity="0.4" d="M8.06836 17.1961H8.0776M16.9289 13.3096H16.9382H16.9289ZM12.5033 13.3096H12.5125H12.5033ZM8.06836 13.3096H8.0776H8.06836ZM16.9289 17.1961H16.9382H16.9289ZM12.5033 17.1961H12.5125H12.5033Z" stroke="black" stroke-width="1.5" stroke-linecap="round" stroke-linejoin="round"/>
<path d="M16.5332 2V5.29078" stroke="black" stroke-width="1.5" stroke-linecap="round" stroke-linejoin="round"/>
<path d="M8.47656 2V5.29078" stroke="black" stroke-width="1.5" stroke-linecap="round" stroke-linejoin="round"/>
<path fill-rule="evenodd" clip-rule="evenodd" d="M16.7265 3.5791H8.28171C5.35283 3.5791 3.52344 5.21504 3.52344 8.22213V17.2718C3.52344 20.3261 5.35283 21.9999 8.28171 21.9999H16.7173C19.6554 21.9999 21.4756 20.3545 21.4756 17.3474V8.22213C21.4848 5.21504 19.6646 3.5791 16.7265 3.5791Z" stroke="black" stroke-width="1.5" stroke-linecap="round" stroke-linejoin="round"/>
</svg>
