<svg width="20" height="20" viewBox="0 0 20 20" fill="none" xmlns="http://www.w3.org/2000/svg">
<path d="M6.28002 0.500643C6.91002 0.519803 7.52002 0.629803 8.11102 0.830803H8.17002C8.21002 0.849803 8.24002 0.870803 8.26002 0.889803C8.48102 0.960803 8.69002 1.0408 8.89002 1.1508L9.27002 1.3208C9.42002 1.4008 9.60002 1.5498 9.70002 1.6108C9.80002 1.6698 9.91002 1.7308 10 1.7998C11.111 0.950803 12.46 0.490803 13.85 0.500643C14.481 0.500643 15.111 0.589803 15.71 0.790803C19.401 1.9908 20.731 6.0408 19.62 9.5808C18.99 11.3898 17.96 13.0408 16.611 14.3898C14.68 16.2598 12.561 17.9198 10.28 19.3498L10.03 19.5008L9.77002 19.3398C7.48102 17.9198 5.35002 16.2598 3.40102 14.3798C2.06102 13.0308 1.03002 11.3898 0.390017 9.5808C-0.739983 6.0408 0.590017 1.9908 4.32102 0.769803C4.61102 0.669803 4.91002 0.599803 5.21002 0.560803H5.33002C5.61102 0.519803 5.89002 0.500643 6.17002 0.500643H6.28002ZM15.19 3.6608C14.78 3.5198 14.33 3.7408 14.18 4.1608C14.04 4.5808 14.26 5.0408 14.68 5.1898C15.321 5.4298 15.75 6.0608 15.75 6.7598V6.7908C15.731 7.0198 15.8 7.2408 15.94 7.4108C16.08 7.5808 16.29 7.6798 16.51 7.7008C16.92 7.6898 17.27 7.3608 17.3 6.9398V6.8208C17.33 5.4198 16.481 4.1508 15.19 3.6608Z" fill="black"/>
</svg>
