<svg width="25" height="24" viewBox="0 0 25 24" fill="none" xmlns="http://www.w3.org/2000/svg">
<path d="M10.0429 20.7733V17.7156C10.0429 16.9351 10.6786 16.3023 11.4628 16.3023H14.3293C14.7059 16.3023 15.067 16.4512 15.3333 16.7163C15.5996 16.9813 15.7492 17.3408 15.7492 17.7156V20.7733C15.7468 21.0978 15.8747 21.4099 16.1043 21.6402C16.334 21.8705 16.6466 22 16.9726 22H18.9283C19.8416 22.0023 20.7184 21.6428 21.3651 21.0008C22.0118 20.3588 22.3752 19.487 22.3752 18.5778V9.86686C22.3752 9.13246 22.0482 8.43584 21.4822 7.96467L14.8294 2.67587C13.6721 1.74856 12.014 1.7785 10.8913 2.74698L4.39022 7.96467C3.79753 8.42195 3.44329 9.12064 3.42578 9.86686V18.5689C3.42578 20.4639 4.96905 22 6.87276 22H8.78378C9.46091 22 10.0112 21.4562 10.0161 20.7822L10.0429 20.7733Z" fill="#E0293D"/>
</svg>
